TITLE ""
FILE "DISC2Track27.mp3" MP3
  TRACK 01 AUDIO
    TITLE "DISC2Track27_01"
    INDEX 01 00:00:00
  TRACK 02 AUDIO
    TITLE "DISC2Track27_02"
    INDEX 01 00:01:61
  TRACK 03 AUDIO
    TITLE "DISC2Track27_03"
    INDEX 01 00:02:01
  TRACK 04 AUDIO
    TITLE "DISC2Track27_04"
    INDEX 01 00:06:25
  TRACK 05 AUDIO
    TITLE "DISC2Track27_05"
    INDEX 01 00:09:74
  TRACK 06 AUDIO
    TITLE "DISC2Track27_06"
    INDEX 01 00:13:27
  TRACK 07 AUDIO
    TITLE "DISC2Track27_07"
    INDEX 01 00:13:40
  TRACK 08 AUDIO
    TITLE "DISC2Track27_08"
    INDEX 01 00:16:31
  TRACK 09 AUDIO
    TITLE "DISC2Track27_09"
    INDEX 01 00:18:69
  TRACK 10 AUDIO
    TITLE "DISC2Track27_10"
    INDEX 01 00:20:74
  TRACK 11 AUDIO
    TITLE "DISC2Track27_11"
    INDEX 01 00:21:14
  TRACK 12 AUDIO
    TITLE "DISC2Track27_12"
    INDEX 01 00:24:72
  TRACK 13 AUDIO
    TITLE "DISC2Track27_13"
    INDEX 01 00:28:28
  TRACK 14 AUDIO
    TITLE "DISC2Track27_14"
    INDEX 01 00:31:15
  TRACK 15 AUDIO
    TITLE "DISC2Track27_15"
    INDEX 01 00:31:40
  TRACK 16 AUDIO
    TITLE "DISC2Track27_16"
    INDEX 01 00:34:29
  TRACK 17 AUDIO
    TITLE "DISC2Track27_17"
    INDEX 01 00:38:05
  TRACK 18 AUDIO
    TITLE "DISC2Track27_18"
    INDEX 01 00:41:19
  TRACK 19 AUDIO
    TITLE "DISC2Track27_19"
    INDEX 01 00:41:37
  TRACK 20 AUDIO
    TITLE "DISC2Track27_20"
    INDEX 01 00:44:33
  TRACK 21 AUDIO
    TITLE "DISC2Track27_21"
    INDEX 01 00:48:05
  TRACK 22 AUDIO
    TITLE "DISC2Track27_22"
    INDEX 01 00:51:29
  TRACK 23 AUDIO
    TITLE "DISC2Track27_23"
    INDEX 01 00:51:47
  TRACK 24 AUDIO
    TITLE "DISC2Track27_24"
    INDEX 01 00:55:11
  TRACK 25 AUDIO
    TITLE "DISC2Track27_25"
    INDEX 01 00:59:09
  TRACK 26 AUDIO
    TITLE "DISC2Track27_26"
    INDEX 01 01:02:49
  TRACK 27 AUDIO
    TITLE "DISC2Track27_27"
    INDEX 01 01:02:64
  TRACK 28 AUDIO
    TITLE "DISC2Track27_28"
    INDEX 01 01:06:09
  TRACK 29 AUDIO
    TITLE "DISC2Track27_29"
    INDEX 01 01:09:17
  TRACK 30 AUDIO
    TITLE "DISC2Track27_30"
    INDEX 01 01:12:04
  TRACK 31 AUDIO
    TITLE "DISC2Track27_31"
    INDEX 01 01:12:18
  TRACK 32 AUDIO
    TITLE "DISC2Track27_32"
    INDEX 01 01:15:71
  TRACK 33 AUDIO
    TITLE "DISC2Track27_33"
    INDEX 01 01:19:33
  TRACK 34 AUDIO
    TITLE "DISC2Track27_34"
    INDEX 01 01:22:36
  TRACK 35 AUDIO
    TITLE "DISC2Track27_35"
    INDEX 01 01:22:53
  TRACK 36 AUDIO
    TITLE "DISC2Track27_36"
    INDEX 01 01:26:73
  TRACK 37 AUDIO
    TITLE "DISC2Track27_37"
    INDEX 01 01:30:41
  TRACK 38 AUDIO
    TITLE "DISC2Track27_38"
    INDEX 01 01:33:51
  TRACK 39 AUDIO
    TITLE "DISC2Track27_39"
    INDEX 01 01:33:67
  TRACK 40 AUDIO
    TITLE "DISC2Track27_40"
    INDEX 01 01:36:71
  TRACK 41 AUDIO
    TITLE "DISC2Track27_41"
    INDEX 01 01:40:36
  TRACK 42 AUDIO
    TITLE "DISC2Track27_42"
    INDEX 01 01:43:42
